<?xml version="1.0" standalone="no"?><svg width="100%" height="100%" id="svg" viewBox="0 0 1440 600" xmlns="http://www.w3.org/2000/svg" class="transition duration-300 ease-in-out delay-150"><path d="M 0,600 C 0,600 0,120 0,120 C 51.638991163475694,129.4837997054492 103.27798232695139,138.96759941089837 159,137 C 214.7220176730486,135.03240058910163 274.52706185567007,121.61340206185567 344,123 C 413.47293814432993,124.38659793814433 492.61377025036813,140.57879234167893 549,139 C 605.3862297496319,137.42120765832107 639.0178571428572,118.0714285714286 696,115 C 752.9821428571428,111.9285714285714 833.3148011782033,125.13549337260675 895,125 C 956.6851988217967,124.86450662739325 999.7229381443299,111.38659793814433 1054,104 C 1108.2770618556701,96.61340206185567 1173.7934462444773,95.3181148748159 1240,99 C 1306.2065537555227,102.6818851251841 1373.1032768777613,111.34094256259205 1440,120 C 1440,120 1440,600 1440,600 Z" stroke="none" stroke-width="0" fill="#f78da744" class="transition-all duration-300 ease-in-out delay-150 path-0"></path><path d="M 0,600 C 0,600 0,240 0,240 C 62.90850515463919,244.855117820324 125.81701030927837,249.71023564064802 195,244 C 264.1829896907216,238.28976435935198 339.6404639175257,222.01417525773198 388,213 C 436.3595360824743,203.98582474226802 457.62113402061857,202.23306332842415 516,216 C 574.3788659793814,229.76693667157585 669.8750000000001,259.05357142857144 735,261 C 800.1249999999999,262.94642857142856 834.8788659793814,237.5526509572901 897,222 C 959.1211340206186,206.4473490427099 1048.6095360824743,200.73582474226802 1109,198 C 1169.3904639175257,195.26417525773198 1200.6829896907216,195.5040500736377 1251,203 C 1301.3170103092784,210.4959499263623 1370.6585051546392,225.24797496318115 1440,240 C 1440,240 1440,600 1440,600 Z" stroke="none" stroke-width="0" fill="#f78da766" class="transition-all duration-300 ease-in-out delay-150 path-1"></path><path d="M 0,600 C 0,600 0,360 0,360 C 53.30596465390282,375.85217231222384 106.61192930780564,391.70434462444774 162,394 C 217.38807069219436,396.29565537555226 274.85824742268034,385.034793814433 332,371 C 389.14175257731966,356.965206185567 445.9550810014729,340.1564801178203 517,331 C 588.0449189985271,321.8435198821797 673.3214285714286,320.3392857142858 744,341 C 814.6785714285714,361.6607142857142 870.7592047128131,404.4863770250368 926,398 C 981.2407952871869,391.5136229749632 1035.6417525773193,335.715206185567 1089,327 C 1142.3582474226807,318.284793814433 1194.6737849779088,356.6527982326952 1253,370 C 1311.3262150220912,383.3472017673048 1375.6631075110456,371.6736008836524 1440,360 C 1440,360 1440,600 1440,600 Z" stroke="none" stroke-width="0" fill="#f78da788" class="transition-all duration-300 ease-in-out delay-150 path-2"></path><path d="M 0,600 C 0,600 0,480 0,480 C 66.01859351988219,451.37223858615613 132.03718703976438,422.74447717231226 199,439 C 265.9628129602356,455.25552282768774 333.8698453608246,516.3943298969072 379,519 C 424.1301546391754,521.6056701030928 446.4834315169368,465.67820324005896 507,447 C 567.5165684830632,428.32179675994104 666.1964285714286,446.8928571428571 736,468 C 805.8035714285714,489.1071428571429 846.7308541973491,512.7503681885125 903,513 C 959.2691458026509,513.2496318114875 1030.8801546391753,490.1056701030928 1100,478 C 1169.1198453608247,465.8943298969072 1235.7485272459498,464.8269513991164 1292,467 C 1348.2514727540502,469.1730486008836 1394.125736377025,474.5865243004418 1440,480 C 1440,480 1440,600 1440,600 Z" stroke="none" stroke-width="0" fill="#f78da7ff" class="transition-all duration-300 ease-in-out delay-150 path-3"></path></svg>